<?xml version="1.0" encoding="utf-8"?>
<!-- Generator: Adobe Illustrator 18.1.1, SVG Export Plug-In . SVG Version: 6.00 Build 0)  -->
<!DOCTYPE svg PUBLIC "-//W3C//DTD SVG 1.1//EN" "http://www.w3.org/Graphics/SVG/1.1/DTD/svg11.dtd">
<svg version="1.1" id="Layer_1" xmlns="http://www.w3.org/2000/svg" xmlns:xlink="http://www.w3.org/1999/xlink" x="0px" y="0px"
	 viewBox="0 0 216 216" style="enable-background:new 0 0 216 216;" xml:space="preserve">
<style type="text/css">
	.st0{fill:#FFFFFF;}
</style>
<g>
	<path class="st0" d="M182.1,194.6c-1.9,0-3.8-0.6-5.2-2.2c-2.6-2.6-3.4-6.9-3.4-10.1c0.2-9.3,0-18.5,0-28.1v-23.5H170v23.5
		c0,9.3,0,18.5,0,28.1c0,3.2-0.9,7.5-3.4,10.1c-1.9,1.9-4.7,2.6-7.8,1.8l-0.2-0.2c-3.8-2.2-5.6-5.6-5.4-10.7c0.2-7.5,0-15.3,0-22.9
		c0-3.8,0-7.5,0-11.5V140c0.4-17,1.5-54.1,1.9-62.5c0,0,0,0.2-0.2,0.2l-3.2,8.8c-3,8.2-6,16.4-8.8,24.6c0,0-2.6,7.3-7.8,7.3
		c-0.6,0-1,0-1.8-0.2c-2.4-0.6-3.8-1.9-4.7-3.7c-0.9-1.8-0.9-4.1,0-6.5c1.5-3.8,2.8-7.8,4.3-11.5c3.2-8.4,6.5-17.2,9.5-25.9
		c3.4-9.7,11.9-16.2,21.6-16.2h2.6h5h5.2h2.6c9.7,0,18.4,6.5,21.6,16.2c3,8.7,6.3,17.5,9.5,25.9c1.5,3.8,2.8,7.5,4.3,11.5
		c0.9,2.6,0.9,4.7,0,6.7c-0.9,1.8-2.4,3-4.7,3.7c-0.6,0.2-1,0.2-1.8,0.2l0,0c-5.2,0-7.8-7.3-7.8-7.3c-2.8-8.2-5.9-16.4-8.8-24.6
		l-3.2-8.8v-0.2c0.4,8.4,1.3,45.5,1.9,62.5v8.8c0,3.8,0,7.5,0,11.5c0,7.5,0,15.3,0,22.9c0.2,5.4-1.5,8.7-5.4,10.7l-0.2,0.2
		C183.9,194.6,183,194.6,182.1,194.6z M167.7,128.3h8.7v26.1c0,9.3,0,18.8,0,28.1c0,2.8,0.6,6.3,2.6,8.2c1.3,1.3,3,1.8,5.2,1
		c3-1.8,4.1-4.1,3.8-8.4c-0.2-7.5,0-15.3,0-22.9c0-3.8,0-7.5,0-11.5v-8.8c-0.4-17-1.8-62.1-1.9-63.8c-0.2-1,0-2.2,0.4-2.6
		c1-1.3,3.2-0.6,3.8,1c0.2,0.2,0.2,0.6,0.4,0.9c0.2,0.4,0.4,0.9,0.4,1.3l3.2,8.8c3,8.2,6,16.4,8.8,24.6c0.4,1.3,3,6.5,6.3,5.6
		c1.5-0.4,2.8-1.3,3.2-2.4c0.6-1.5,0.4-3.2,0-4.5c-1.5-3.8-2.8-7.5-4.3-11.5c-3.2-8.4-6.5-17.2-9.5-26.1s-10.6-14.4-19.2-14.4h-2.6
		h-5h-5.2h-2.6c-8.7,0-16.2,5.9-19.2,14.4c-3,8.8-6.5,17.5-9.5,26.1c-1.5,3.8-2.8,7.5-4.3,11.5c-0.4,1.3-0.9,3,0,4.5
		c0.4,1,1.8,1.9,3.2,2.4c3.2,1,5.9-4.1,6.3-5.6c2.8-8.2,5.9-16.4,8.8-24.6l3.2-8.8c0.2-0.4,0.4-0.9,0.4-1.3c0.2-0.4,0.2-0.6,0.4-0.9
		c0.6-1.8,2.8-2.4,3.8-1c0.4,0.6,0.6,1.5,0.4,2.8c-0.2,1.8-1.5,46.6-1.9,63.8v8.8c0,3.8,0,7.5,0,11.5c0,7.5,0,15.3,0,22.9
		c0,4.3,1,6.7,3.8,8.4c2.2,0.4,3.8,0.2,5.2-1c1.9-1.9,2.6-5.4,2.6-8.2c-0.2-9.3,0-18.5,0-28.1L167.7,128.3z M111.6,194.6
		c-1.5,0-2.6-0.4-3.7-1.5c-1.8-1.8-2.4-4.7-2.4-6.7c0-6,0-11.9,0-17.9v-8h-1.3v8c0,6,0,11.9,0,17.9c0,2.2-0.6,5-2.4,6.7
		c-1.3,1.3-3.2,1.9-5.4,1.3l-0.2-0.2c-3.4-1.9-3.7-5.2-3.7-7.3c0-5,0-9.7,0-14.7c0-2.4,0-5,0-7.3v-4.3h-3.2c-1,0-2.2,0-3.4,0
		c-1.5,0-2.6-0.4-3.2-1.3c-0.9-0.9-1-1.9-1-3.4c0-1,0.2-2.2,0.6-3.2l3.2-9.3c-1,1.5-3,3-5.4,2.4c-1.5-0.4-2.8-1.3-3.2-2.6
		c-0.6-1.3-0.6-2.8,0-4.5c0.9-2.4,1.9-5,2.8-7.3c2.2-5.4,4.1-11,6-16.6c2.2-6.7,7.8-10.7,14.2-10.9h1.8h3.2h3.2h1.8
		c6.5,0,12.1,4.3,14.2,10.7c1.9,5.6,4.1,11.2,6,16.6c0.9,2.4,1.9,5,2.8,7.3c0.6,1.8,0.6,3.2,0,4.5c-0.6,1.3-1.8,2.2-3.2,2.6
		c-0.4,0.2-0.9,0.2-1.3,0.2l0,0c-1.8,0-3.2-1.3-4.1-2.6c1,3,2.2,6,3.2,9.3c0.4,1,0.6,2.2,0.6,3.2c0,1.5-0.2,2.6-1,3.4
		c-0.9,0.9-1.9,1.3-3.2,1.3c-1,0-2.2,0-3.4,0h-3.2v4.3c0,2.4,0,5,0,7.3c0,5,0,9.7,0,14.7c0,2.2-0.2,5.4-3.7,7.3l-0.2,0.2
		C112.9,194.6,112.3,194.6,111.6,194.6z M101.9,157.9h6.5v10.6c0,6,0,11.9,0,17.9c0,1.8,0.4,3.8,1.5,5c0.6,0.6,1.5,0.9,2.8,0.6
		c1.8-1,2.4-2.4,2.4-5c0-5,0-9.7,0-14.7c0-2.4,0-5,0-7.3v-6.9h5.9c1,0,2.2,0,3.2,0c0.6,0,1.3-0.2,1.5-0.4c0.2-0.2,0.4-0.9,0.4-1.5
		c0-0.9-0.2-1.8-0.6-2.6c-2.6-7.5-5.2-14.9-8-22.5l-3.7-10.6c-0.2-0.6-0.4-1.5-0.6-2.2c-0.2-1,0.2-1.8,0.4-2.2
		c0.9-1,3.2-0.6,3.7,0.6l0.2,0.6c0.2,0.2,0.2,0.4,0.4,0.9l2.8,7.8c1.8,4.5,3.2,9.1,5,13.8c0.4,1.3,1.9,3.7,3.4,3.2
		c0.9-0.2,1.5-0.6,1.8-1.3c0.4-0.9,0.2-1.8,0-2.6c-0.9-2.4-1.8-4.7-2.8-7.3c-2.2-5.4-4.1-11.2-6.3-16.8c-1.9-5.4-6.5-8.8-11.9-9.1
		h-1.8H105h-3.2h-1.8c-5.4,0-10.1,3.4-11.9,9.1c-1.8,5.9-3.8,11.5-6,16.8c-0.9,2.4-1.9,5-2.8,7.3c-0.2,0.6-0.4,1.8,0,2.6
		c0.2,0.6,0.9,1,1.8,1.3c1.8,0.6,3-2.4,3.4-3.2c1.9-5.4,3.8-10.6,5.9-16l1.9-5.6c0.2-0.2,0.2-0.6,0.4-0.9l0.2-0.6
		c0.6-1.3,2.8-1.9,3.7-0.6c0.2,0.4,0.6,1,0.4,1.9c-0.2,0.9-0.4,1.5-0.6,2.4l-11.6,32.5c-0.2,0.9-0.4,1.9-0.4,2.6s0,1.3,0.4,1.5
		c0.2,0.2,0.9,0.4,1.5,0.4c1,0,2.2,0,3.2,0h5.9v6.9c0,2.4,0,5,0,7.3c0,5,0,9.7,0,14.7c0,2.6,0.6,3.8,2.4,5c1,0.2,2.2,0,2.8-0.6
		c1-1,1.5-3.2,1.5-5c0-6,0-12.1,0-17.9L101.9,157.9L101.9,157.9z M49.7,193c-1.9,0-3.4-0.6-4.7-1.9c-2.4-2.4-3.2-6.3-3-9.3
		c0-8.4,0-17,0-25.4v-12.1h-3v12.1c0,8.4,0,17,0,25.4c0,3-0.6,6.9-3,9.3c-1.8,1.9-4.3,2.4-7.1,1.8l-0.2-0.2c-4.5-2.6-5.2-6.7-5-10.1
		c0.2-6.9,0-14,0-20.9c0-3.4,0-6.9,0-10.6v-6.7h-5.2c-1.5,0-3.2,0-4.7,0c-1.9,0-3.4-0.6-4.3-1.8c-1-1-1.5-2.6-1.3-4.5
		c0-1.3,0.4-3,0.9-4.5l16.7-46.7c0.4-0.9,0.6-1.9,0.9-2.8c0-0.2,0-0.4,0-0.4c0,0.4-0.2,0.9-0.4,1c-0.2,0.4-0.2,0.6-0.4,1l-2.8,8
		c-2.8,7.5-5.4,15.1-8.2,22.6c0,0-2.4,6.9-7.3,6.9c-0.4,0-1,0-1.5-0.2c-2.2-0.6-3.7-1.8-4.5-3.4s-0.9-3.7,0-6
		c1.3-3.4,2.6-6.9,3.8-10.6c3-7.8,6-15.7,8.8-23.7c3-9.1,11-14.9,19.8-14.9h2.4H41h4.7h2.4c9.1,0,16.8,5.9,19.8,14.9
		c2.8,8,5.9,16.2,8.8,24c1.3,3.4,2.6,6.9,3.8,10.3c0.9,2.4,0.9,4.5,0,6c-0.9,1.5-2.4,2.8-4.5,3.4c-0.4,0.2-1,0.2-1.5,0.2
		c-4.7,0-7.1-6.7-7.3-6.9c-2.4-6.5-4.7-12.9-7.1-19.6c-1.3-3.7-2.6-7.3-4.1-11c-0.2-0.4-0.2-0.6-0.4-1c-0.2-0.2-0.2-0.6-0.4-0.9l0,0
		c0.2,0.9,0.4,1.9,0.9,2.8l4.7,13.4c3.8,11,7.8,22.2,11.9,33.2c0.6,1.5,0.9,3,0.9,4.5c0,1.9-0.4,3.4-1.3,4.5c-1,1-2.4,1.8-4.3,1.8
		c-1.5,0-3.2,0-4.7,0h-5.2v6.7c0,3.4,0,6.9,0,10.6c0,6.9,0,14,0,20.9c0,3.2-0.4,7.3-5,10.1l-0.2,0.2C51.3,193,50.6,193,49.7,193z
		 M36.3,141.7h8.2v14.7c0,8.4,0,17,0,25.4c0,2.6,0.6,5.9,2.4,7.3c1,1,2.6,1.5,4.5,1c2.6-1.5,3.7-3.8,3.7-7.8c-0.2-6.9,0-14,0-20.9
		c0-3.4,0-6.9,0-10.6v-9.3h7.8c1.5,0,3,0,4.7,0c1,0,1.9-0.2,2.6-0.9c0.4-0.4,0.6-1.3,0.6-2.6s-0.4-2.6-0.9-3.8
		c-3.8-11-7.8-22.2-11.9-33.2l-4.7-13.2c-0.4-1-0.6-2.2-0.9-3.2c-0.2-1.3,0.2-1.9,0.4-2.4c1-1.3,3.8-0.9,4.5,0.9
		c0,0.2,0.2,0.6,0.4,0.9c0.2,0.4,0.4,0.9,0.4,1c1.3,3.7,2.6,7.3,4.1,11c2.4,6.5,4.7,12.9,7.1,19.6c0.6,1.8,3,5.9,5.6,5
		c1.5-0.4,2.4-1,2.8-2.2c0.6-1.3,0.4-3,0-4.1c-1.3-3.4-2.6-6.9-3.8-10.3c-3-7.8-6-16-8.8-24c-2.8-8-9.7-13.2-17.5-13.2h-2.4h-4.7
		h-4.7h-2.4c-8,0-14.7,5.2-17.5,13.2c-3,8.4-6,16.4-9.1,24.1c-1.3,3.4-2.6,6.9-3.8,10.6c-0.4,1-0.6,2.8,0,4.1
		c0.4,0.9,1.5,1.8,2.8,2.2c2.6,0.9,5-3.2,5.6-5c2.6-7.5,5.5-15.1,8.3-22.7l2.8-8c0.2-0.3,0.4-0.8,0.4-1c0.2-0.2,0.2-0.6,0.4-0.9
		c0.6-1.8,3.2-2.2,4.5-0.9c0.4,0.4,0.6,1.3,0.4,2.4c-0.2,1.1-0.5,2.2-0.7,3.3l-16.6,46.3c-0.4,1.3-0.6,2.8-0.9,3.8
		c0,1,0.2,1.9,0.6,2.6c0.4,0.4,1.3,0.9,2.6,0.9c1.5,0,3,0,4.7,0h7.8v9.3c0,3.4,0,6.9,0,10.6c0,6.9,0,14,0,20.9c0,3.8,0.9,6,3.7,7.8
		c1.9,0.4,3.4,0.2,4.5-1c1.8-1.8,2.4-5,2.4-7.3c0-8.4,0-17,0-25.4C36.3,156.7,36.3,141.7,36.3,141.7z M105.4,103.8H105
		c-2.8,0-5.6-1.3-7.3-3.2c-1.9-2.2-3-5-3-8c0.2-5.6,5-10.1,10.6-10.1s10.3,4.5,10.6,10.1c0,3-0.9,5.9-3,7.8
		C110.8,102.4,108.2,103.5,105.4,103.8L105.4,103.8z M105.1,85.2c-4.3,0-8,3.4-8,7.5c0,2.4,0.6,4.5,2.2,6c1.5,1.5,3.4,2.4,5.6,2.4
		h0.4c2.2,0,4.1-0.9,5.6-2.4c1.5-1.5,2.4-3.7,2.2-6C112.9,88.5,109.5,85.2,105.1,85.2z M40.7,63.5H40c-3.8,0-7.5-1.8-10.1-4.3
		c-2.8-2.8-4.1-6.7-4.1-10.7c0.2-7.8,6.7-14,14.4-14s14.4,6.3,14.7,13.8c0.2,4.1-1.3,8-4.1,10.7C48.2,61.7,44.5,63.2,40.7,63.5
		L40.7,63.5z M40.3,36.9c-6.5,0-11.9,5.2-11.9,11.5c0,3.4,1,6.7,3.2,9.1c2.2,2.2,5.2,3.4,8.4,3.7h0.6c3.2,0,6.3-1.3,8.4-3.7
		c2.2-2.4,3.4-5.6,3.2-9.1C52.1,42,46.7,36.9,40.3,36.9z M172.2,52.9h-0.6c-4.3,0-8.2-1.8-11-4.7c-3-3-4.5-7.1-4.3-11.6
		c0.2-8,7.1-14.7,15.3-15.1l0,0h0.4c8.4,0,15.6,6.9,15.7,15.1c0.2,4.5-1.5,8.7-4.3,11.6C180.4,51.1,176.5,52.9,172.2,52.9
		L172.2,52.9z M171.8,23.9c-7.1,0.2-12.7,5.9-12.9,12.5c-0.2,3.8,1.3,7.3,3.7,9.9s5.6,3.8,9.3,3.8h0.6c3.7,0,6.9-1.5,9.3-3.8
		c2.4-2.6,3.8-6,3.7-9.9C184.9,29.5,179.1,23.9,171.8,23.9L171.8,23.9z"/>
</g>
</svg>
