<svg xmlns="http://www.w3.org/2000/svg" viewBox="0 0 169.7 161" enable-background="new 0 0 169.7 161"><style type="text/css">.st0{fill:#00A5B9;} .st1{fill:#0091A5;} .st2{fill:#007D91;}</style><path class="st0" d="M159.7 78.7c-6-8.3-13.9-14.3-23.5-17.9-.3-.1-.6-.2-.9-.4l-2.3-.7 2.3.7c.3.1.6.2.9.4 0-.3-.1-.6-.1-.8.8-5.2.8-10.5.1-15.7-3.2-21.9-20.2-39.5-41.9-43.4-1.7-.3-3.4-.9-5.2-.9h-8.2c-1.8 0-3.6.7-5.4 1-21.5 3.8-38.6 21.7-41.6 43.4-.7 4.9-.7 9.9 0 14.8l.1 1.4v.1c-19.9 7.3-34 26.3-34 48.6 0 28.6 23.2 51.7 51.8 51.7 12.6 0 24.1-4.5 33.1-12 12.3 9.9 26.3 13.7 41.9 11.1 23.8-3.9 42.1-24.8 42.8-48.9.4-11.9-2.8-22.8-9.9-32.5zm-64.9 1.6c3.8 5.8 6.4 12.1 7.8 18.9.1.5.3 1-.2 1.4-4.5 1.5-9.1 2.5-13.8 2.9-6.1.5-12-.3-17.8-1.9-1.2-.3-2.4-.8-3.6-1.2.2-2.7 1-5.3 1.9-7.8 2.7-8.2 7.4-15.2 13.7-21.1.8-.7 1.5-1.5 2.5-2 .1-.2.2-.4.4-.5-.2.1-.3.3-.4.5 3.6 3.2 6.8 6.7 9.5 10.8zm4.6 49.3s0-.1.1-.1c-.1 0-.1 0-.1.1zm-43.1-34.8l-3.4-2.5c1.1.9 2.2 1.7 3.4 2.5z"/><path class="st1" d="M135.1 59.6c-4.1-4.2-8.8-7.7-14.1-10.4-6.9-3.5-14.2-5.3-21.9-5.5-6.9-.2-13.5 1.1-19.9 3.5-6.1 2.3-11.4 5.6-16.2 9.9-5.4 4.9-9.7 10.8-12.6 17.6-1.7 3.8-2.9 7.7-3.5 11.8l-1.2 10.4c-5.8-7-9.6-15.3-11.1-24.9-.6-3.6-.7-7.3-.6-10.9l-.4.9c-1.9 6.8-2.5 13.8-1.6 20.8 1.3 10.5 5.5 19.8 12.5 27.8 5.7 6.4 12.5 11.2 20.6 14.2 5.3 2 10.8 3 16.4 3.3 3.9.2 7.8-.3 11.6-.9 2.7-.5 5.3-1.4 7.9-2l8.8-2.5c-1.1 2.6-2.5 5.2-4.1 7.8-3.5 5.5-8 10.2-13.3 14-1.7 1.2-3.4 2.4-5.3 3.3-.3.2-.7.5-1.1.2-.3.2-.6.4-.8.7.6.3 1.2 0 1.8-.1 10.2-2.7 18.9-8 25.9-16 4.3-4.9 7.5-10.5 9.7-16.6 2.9-7.9 3.7-16 2.6-24.3-1.6-11.5-6.4-21.4-14.5-29.6l-3.3-3.2-8.7-6.1 1.4-.3c8.6-1.2 17-.2 25.2 2.9 3 1.1 5.8 2.5 8.5 4.1.6.3 1.1.7 1.5 1.2.3.1.6.2.9.4.1-.5-.8-1.2-1.1-1.5zm-39.4 3c.1.5.5.7.8 1 9.7 8.8 15.6 19.7 17.1 32.7.7 6 .4 11.9-.9 17.5l-9.7-.8c-.2 0-.5 0-1 .2-6 2-12.2 2.9-18.5 2.6-11-.5-21-4.1-29.6-10.9-.6-.5-1.1-1-1.6-1.4l4.1-8.7c.6-4.7 2.2-9.1 4.2-13.4 4.5-9.5 11.3-17 20.4-22.3 3-1.8 6.1-3.2 9.3-4.3l5.4 7.8z"/><path class="st2" d="M133.9 59.3c-2.7-1.5-5.6-2.9-8.5-4.1-8.2-3.1-16.6-4-25.2-2.9-6.9 1-13.3 3.2-19.3 6.7-9.1 5.5-15.9 13-20.4 22.5-2 4.2-3.6 8.7-4.2 13.4l-3.4-2.5c-1.4-1.1-2.7-2.3-4-3.5-.8-.6-1.5-1.4-2-2.4-2.4-2.2-4.1-4.9-5.8-7.6-3.3-5.3-5.4-11-6.6-17.1-.1-.3 0-.6-.4-.6-.1 3.7 0 7.3.6 10.9 2.2 13.5 8.6 24.5 19.3 32.9 8.7 6.9 18.6 10.4 29.6 10.9 6.3.3 12.5-.6 18.5-2.6 1.3-.4 1.3-.4 1.4.9-.4 3.7-1.1 7.4-2.3 11-.1.4-.2.9-.4 1.3-3 8.4-7.8 15.5-14.5 21.4.4.2.8 0 1.1-.2 1.9-.9 3.6-2.1 5.3-3.3 5.3-3.9 9.7-8.5 13.3-14 6.6-10.4 9.2-21.8 7.8-34.1-1.5-13.1-7.4-23.9-17.1-32.7-.3-.3-.7-.5-.8-1l2.4-1c3.1-1.2 6.1-2.4 9.4-2.9.2-.1.4-.2.6-.2 6-1.2 12-1.2 18.1-.3 3.2.5 6.2 1.4 9.2 2.3-.6-.5-1.1-.9-1.7-1.2zm-39 21c3.8 5.8 6.4 12.1 7.8 18.9.1.5.3 1-.2 1.4-4.5 1.5-9.1 2.5-13.8 2.9-6.1.5-12-.3-17.8-1.9-1.2-.3-2.4-.8-3.6-1.2.2-2.7 1-5.3 1.9-7.8 2.7-8.2 7.4-15.2 13.7-21.1.8-.7 1.5-1.5 2.5-2 .1-.2.2-.4.4-.5-.2.1-.3.3-.4.5 3.5 3.2 6.8 6.8 9.5 10.8z"/></svg>