<?xml version="1.0" encoding="utf-8"?>
<!-- Generator: Adobe Illustrator 18.1.1, SVG Export Plug-In . SVG Version: 6.00 Build 0)  -->
<!DOCTYPE svg PUBLIC "-//W3C//DTD SVG 1.1//EN" "http://www.w3.org/Graphics/SVG/1.1/DTD/svg11.dtd">
<svg version="1.1" id="Layer_1" xmlns="http://www.w3.org/2000/svg" xmlns:xlink="http://www.w3.org/1999/xlink" x="0px" y="0px"
	 viewBox="0 0 88.6 72" enable-background="new 0 0 88.6 72" xml:space="preserve">
<path fill="#0191A5" d="M8.6,1.9h71.5c3.4,0,6.1,2.8,6.1,6.1v0c0,3.4-2.8,6.1-6.1,6.1H8.6c-3.4,0-6.1-2.8-6.1-6.1v0
	C2.4,4.7,5.2,1.9,8.6,1.9z"/>
<path fill="#0191A5" d="M8.6,29.9h71.5c3.4,0,6.1,2.8,6.1,6.1v0c0,3.4-2.8,6.1-6.1,6.1H8.6c-3.4,0-6.1-2.8-6.1-6.1v0
	C2.4,32.6,5.2,29.9,8.6,29.9z"/>
<path fill="#0191A5" d="M8.6,57.8h71.5c3.4,0,6.1,2.8,6.1,6.1v0c0,3.4-2.8,6.1-6.1,6.1H8.6c-3.4,0-6.1-2.8-6.1-6.1v0
	C2.4,60.5,5.2,57.8,8.6,57.8z"/>
</svg>
