<?xml version="1.0" encoding="utf-8"?>
<!-- Generator: Adobe Illustrator 18.1.1, SVG Export Plug-In . SVG Version: 6.00 Build 0)  -->
<!DOCTYPE svg PUBLIC "-//W3C//DTD SVG 1.1//EN" "http://www.w3.org/Graphics/SVG/1.1/DTD/svg11.dtd">
<svg version="1.1" id="Layer_1" xmlns="http://www.w3.org/2000/svg" xmlns:xlink="http://www.w3.org/1999/xlink" x="0px" y="0px"
	 viewBox="0 0 88.6 72" enable-background="new 0 0 88.6 72" xml:space="preserve">
<path fill="#EF4442" d="M7.5,0.9h73.7c3.5,0,6.3,2.8,6.3,6.3v0c0,3.5-2.8,6.3-6.3,6.3H7.5c-3.5,0-6.3-2.8-6.3-6.3v0
	C1.1,3.7,4,0.9,7.5,0.9z"/>
<path fill="#EF4442" d="M7.5,29.7h73.7c3.5,0,6.3,2.8,6.3,6.3v0c0,3.5-2.8,6.3-6.3,6.3H7.5c-3.5,0-6.3-2.8-6.3-6.3v0
	C1.1,32.5,4,29.7,7.5,29.7z"/>
<path fill="#EF4442" d="M7.5,58.5h73.7c3.5,0,6.3,2.8,6.3,6.3v0c0,3.5-2.8,6.3-6.3,6.3H7.5c-3.5,0-6.3-2.8-6.3-6.3v0
	C1.1,61.3,4,58.5,7.5,58.5z"/>
</svg>
