<svg xmlns="http://www.w3.org/2000/svg" viewBox="0 0 216 216" enable-background="new 0 0 216 216"><style type="text/css">.st0{fill:#FFFFFF;}</style><path class="st0" d="M120.8 216c-2.6 0-4.8-.9-6.7-2.8-3.2-3.2-4.3-8.7-4.3-12.8.2-11.5.2-23.2 0-34.7v-16.2h-3.9v50.900000000000006c0 3.9-1.1 9.5-4.3 12.6-2.6 2.6-5.8 3.2-10 2.4l-.4-.2c-6.3-3.7-6.9-9.3-6.9-13.6.2-9.5.2-19.1 0-28.4v-23.4h-13.4c-2.6 0-4.5-.9-6.1-2.4-1.3-1.5-1.9-3.5-1.9-6.1 0-1.9.4-4.1 1.3-6.3l22.5-63.5c.4-1.1.6-1.9.9-3 0 .2 0 .2-.2.4-.2.4-.4.9-.6 1.5l-4.1 10.6c-3.7 10.2-7.6 20.6-11 30.8 0 0-3.2 9.3-10 9.3-.6 0-1.5-.2-2.2-.4-3-.9-5-2.4-6.1-4.5-1.1-2.2-1.3-5.2-.2-8.2 1.7-4.8 3.5-9.5 5.4-14.3 3.9-10.6 8.2-21.4 11.9-32.5 4.3-12.3 14.9-20.1 27.1-20.4h19c12.3 0 23 8 27.1 20.4 3.7 10.8 8 21.9 11.9 32.5l5.2 14.1c1.1 3.2 1.1 6.1 0 8.4-1.1 2.2-3.2 3.7-6.1 4.5-.6.2-1.5.4-2.2.4-6.5 0-10-9.3-10-9.3-3-8.9-6.3-17.8-9.5-26.6-1.7-5-3.7-10-5.4-14.9l-.6-1.3c0-.2 0-.2-.2-.4.2 1.1.6 1.9.9 3l6.1 17.1 16.2 46.4c.6 1.9 1.3 4.1 1.3 6.3.2 2.6-.4 4.5-1.9 6.1-1.3 1.5-3.5 2.2-6.1 2.4h-13.4v23.4c0 9.3-.2 18.8 0 28.4 0 4.5-.6 10.2-6.9 13.6l-.4.2c.3.5-1 .5-1.8.5zm-18.4-70h11.3v54.9c0 3.5.9 7.8 3.2 10 1.5 1.5 3.5 1.9 6.1 1.3 3.5-2.2 5-5.2 4.8-10.4-.2-9.5-.2-19.3 0-28.6v-27.200000000000003h17.1c1.5 0 2.6-.4 3.2-1.1.6-.6.9-1.7.9-3.5s-.4-3.5-1.1-5.2l-16.2-46.4-6.1-17.1c-.4-1.3-.9-2.8-1.3-4.3-.4-1.7.2-2.8.6-3.5 1.5-1.9 5.2-1.1 6.1 1.1.2.4.2.6.4 1.1l.6 1.5c1.7 5 3.7 10 5.4 14.9 3.2 8.9 6.5 17.8 9.5 26.6.9 2.4 3.9 7.8 7.4 6.7 1.9-.6 3.2-1.5 3.9-2.8.9-1.7.4-3.9 0-5.4-1.7-4.5-3.5-9.3-5.2-14.1-4.1-10.6-8.2-21.7-11.9-32.5-3.7-10.8-13-17.8-23.8-17.8h-19c-10.6 0-19.9 7.1-23.8 17.8-3.9 10.8-8 21.9-11.9 32.5-1.7 4.8-3.5 9.5-5.4 14.1-.4 1.5-.9 3.7 0 5.4.6 1.3 1.9 2.2 3.9 2.8 3.5 1.1 6.7-4.3 7.4-6.7 3.7-10.4 7.4-20.6 11-31l3.9-10.8c.2-.6.4-1.1.6-1.5.2-.4.4-.9.4-1.1.9-2.4 4.5-3 6.1-1.1.4.6 1.1 1.7.6 3.5-.2 1.5-.6 3-1.3 4.3l-21.7 63.9c-.6 1.9-1.1 3.7-1.1 5.2s.2 2.8.9 3.5c.6.6 1.7 1.1 3.5 1.1h17.1v27.200000000000003c0 9.3.2 19.1 0 28.6 0 5.2 1.3 8.2 4.8 10.4 2.6.6 4.5.2 6.1-1.3 2.2-2.4 3.2-6.7 3.2-10-.2-11.5-.2-23.2 0-34.7l-.2-20.3zm6-106.4h-.9c-5.4 0-10.4-2.2-13.9-6.1-3.7-3.9-5.6-9.1-5.4-14.7.1-10.4 9-18.8 19.8-18.8 10.6 0 19.7 8.4 19.9 18.8.2 5.6-1.7 10.8-5.4 14.7-3.7 4-8.7 6.1-14.1 6.1zm-.4-35.9c-8.7 0-16 6.9-16.2 15.4-.2 4.8 1.5 8.9 4.5 12.1 2.8 3 6.9 4.8 11.3 4.8h.9c4.3 0 8.4-1.7 11.3-4.8 3-3.2 4.5-7.6 4.5-12.1-.3-8.5-7.6-15.4-16.3-15.4z"/></svg>