<?xml version="1.0" encoding="utf-8"?>
<!-- Generator: Adobe Illustrator 18.1.1, SVG Export Plug-In . SVG Version: 6.00 Build 0)  -->
<!DOCTYPE svg PUBLIC "-//W3C//DTD SVG 1.1//EN" "http://www.w3.org/Graphics/SVG/1.1/DTD/svg11.dtd">
<svg version="1.1" id="Layer_1" xmlns="http://www.w3.org/2000/svg" xmlns:xlink="http://www.w3.org/1999/xlink" x="0px" y="0px"
	 viewBox="0 0 216 216" style="enable-background:new 0 0 216 216;" xml:space="preserve">
<style type="text/css">
	.st0{fill:#FFFFFF;}
</style>
<g>
	<path class="st0" d="M120.8,216c-2.6,0-4.8-0.9-6.7-2.8c-3.2-3.2-4.3-8.7-4.3-12.8c0.2-11.5,0.2-23.2,0-34.7v-16.2h-3.9v16.2
		c0,11.5,0,23.2,0,34.7c0,3.9-1.1,9.5-4.3,12.6c-2.6,2.6-5.8,3.2-10,2.4l-0.4-0.2c-6.3-3.7-6.9-9.3-6.9-13.6
		c0.2-9.5,0.2-19.1,0-28.4c0-4.8,0-9.5,0-14.3v-9.1h-6.9c-2.2,0-4.3,0-6.5,0c-2.6,0-4.5-0.9-6.1-2.4c-1.3-1.5-1.9-3.5-1.9-6.1
		c0-1.9,0.4-4.1,1.3-6.3l22.5-63.5c0.4-1.1,0.6-1.9,0.9-3c0,0.2,0,0.2-0.2,0.4c-0.2,0.4-0.4,0.9-0.6,1.5L82.7,81
		c-3.7,10.2-7.6,20.6-11,30.8c0,0-3.2,9.3-10,9.3c-0.6,0-1.5-0.2-2.2-0.4c-3-0.9-5-2.4-6.1-4.5c-1.1-2.2-1.3-5.2-0.2-8.2
		c1.7-4.8,3.5-9.5,5.4-14.3c3.9-10.6,8.2-21.4,11.9-32.5c4.3-12.3,14.9-20.1,27.1-20.4c1.1,0,2.2,0,3.2,0h6.3h6.3c1.1,0,2.2,0,3.2,0
		c12.3,0,23,8,27.1,20.4c3.7,10.8,8,21.9,11.9,32.5c1.7,4.8,3.5,9.3,5.2,14.1c1.1,3.2,1.1,6.1,0,8.4c-1.1,2.2-3.2,3.7-6.1,4.5
		c-0.6,0.2-1.5,0.4-2.2,0.4c-6.5,0-10-9.3-10-9.3c-3-8.9-6.3-17.8-9.5-26.6c-1.7-5-3.7-10-5.4-14.9c-0.2-0.4-0.4-0.9-0.6-1.3
		c0-0.2,0-0.2-0.2-0.4c0.2,1.1,0.6,1.9,0.9,3l6.1,17.1c5.4,15.4,10.8,31,16.2,46.4c0.6,1.9,1.3,4.1,1.3,6.3c0.2,2.6-0.4,4.5-1.9,6.1
		c-1.3,1.5-3.5,2.2-6.1,2.4c-2.2,0-4.3,0-6.5,0h-6.9v9.1c0,4.8,0,9.5,0,14.3c0,9.3-0.2,18.8,0,28.4c0,4.5-0.6,10.2-6.9,13.6
		l-0.4,0.2C122.9,216,121.6,216,120.8,216z M102.4,146h11.3V166c0,11.5,0,23.2,0,34.9c0,3.5,0.9,7.8,3.2,10c1.5,1.5,3.5,1.9,6.1,1.3
		c3.5-2.2,5-5.2,4.8-10.4c-0.2-9.5-0.2-19.3,0-28.6c0-4.8,0-9.5,0-14.3V146h10.6c2.2,0,4.3,0,6.5,0c1.5,0,2.6-0.4,3.2-1.1
		c0.6-0.6,0.9-1.7,0.9-3.5s-0.4-3.5-1.1-5.2c-5.4-15.4-10.8-31-16.2-46.4l-6.1-17.1c-0.4-1.3-0.9-2.8-1.3-4.3
		c-0.4-1.7,0.2-2.8,0.6-3.5c1.5-1.9,5.2-1.1,6.1,1.1c0.2,0.4,0.2,0.6,0.4,1.1c0.2,0.4,0.4,1.1,0.6,1.5c1.7,5,3.7,10,5.4,14.9
		c3.2,8.9,6.5,17.8,9.5,26.6c0.9,2.4,3.9,7.8,7.4,6.7c1.9-0.6,3.2-1.5,3.9-2.8c0.9-1.7,0.4-3.9,0-5.4c-1.7-4.5-3.5-9.3-5.2-14.1
		c-4.1-10.6-8.2-21.7-11.9-32.5c-3.7-10.8-13-17.8-23.8-17.8c-1.1,0-2.2,0-3.2,0h-6.3h-6.3c-1.1,0-2.2,0-3.2,0
		c-10.6,0-19.9,7.1-23.8,17.8c-3.9,10.8-8,21.9-11.9,32.5c-1.7,4.8-3.5,9.5-5.4,14.1c-0.4,1.5-0.9,3.7,0,5.4
		c0.6,1.3,1.9,2.2,3.9,2.8c3.5,1.1,6.7-4.3,7.4-6.7c3.7-10.4,7.4-20.6,11-31l3.9-10.8c0.2-0.6,0.4-1.1,0.6-1.5
		c0.2-0.4,0.4-0.9,0.4-1.1c0.9-2.4,4.5-3,6.1-1.1c0.4,0.6,1.1,1.7,0.6,3.5c-0.2,1.5-0.6,3-1.3,4.3l-21.7,63.9
		c-0.6,1.9-1.1,3.7-1.1,5.2s0.2,2.8,0.9,3.5c0.6,0.6,1.7,1.1,3.5,1.1c2.2,0,4.3,0,6.5,0h10.6V159c0,4.8,0,9.5,0,14.3
		c0,9.3,0.2,19.1,0,28.6c0,5.2,1.3,8.2,4.8,10.4c2.6,0.6,4.5,0.2,6.1-1.3c2.2-2.4,3.2-6.7,3.2-10c-0.2-11.5-0.2-23.2,0-34.7
		L102.4,146z M108.4,39.6h-0.9c-5.4,0-10.4-2.2-13.9-6.1c-3.7-3.9-5.6-9.1-5.4-14.7C88.3,8.4,97.2,0,108,0
		c10.6,0,19.7,8.4,19.9,18.8c0.2,5.6-1.7,10.8-5.4,14.7C118.8,37.5,113.8,39.6,108.4,39.6L108.4,39.6z M108,3.7
		c-8.7,0-16,6.9-16.2,15.4c-0.2,4.8,1.5,8.9,4.5,12.1c2.8,3,6.9,4.8,11.3,4.8h0.9c4.3,0,8.4-1.7,11.3-4.8c3-3.2,4.5-7.6,4.5-12.1
		C124,10.6,116.7,3.7,108,3.7z"/>
</g>
</svg>
